<svg width="80" height="80" viewBox="0 0 80 80" fill="none" xmlns="http://www.w3.org/2000/svg">
<path d="M40 75C59.33 75 75 59.33 75 40C75 20.67 59.33 5 40 5C20.67 5 5 20.67 5 40C5 59.33 20.67 75 40 75Z" fill="url(#paint0_linear_48_239)"/>
<path d="M46.117 21.6351C46.8735 20.3147 46.4213 18.6282 45.107 17.8682C43.7928 17.1082 42.114 17.5626 41.3575 18.883L40.0383 21.1861L38.7188 18.883C37.9623 17.5626 36.2835 17.1082 34.9693 17.8682C33.655 18.6282 33.2028 20.3147 33.9593 21.6351L36.87 26.716L27.663 42.7873H20.2458C18.7293 42.7873 17.5 44.0223 17.5 45.5458C17.5 47.0693 18.7293 48.3043 20.2458 48.3043H46.081C46.3075 47.7063 46.546 46.6803 46.2922 45.7373C45.911 44.3198 44.5 42.7873 42.1355 42.7873H33.9993L46.117 21.6351Z" fill="white"/>
<path d="M29.091 51.3547C28.6225 50.832 27.573 49.9967 26.6525 49.722C25.2492 49.3027 24.1853 49.5657 23.6485 49.7947L21.6033 53.365C20.8468 54.6852 21.2991 56.3717 22.6134 57.1317C23.9277 57.8917 25.6062 57.4375 26.3627 56.117L29.091 51.3547Z" fill="white"/>
<path d="M55.5737 48.3043H59.7542C61.2707 48.3043 62.5 47.0693 62.5 45.5458C62.5 44.0223 61.2707 42.7873 59.7542 42.7873H52.4132L44.1437 28.3528C43.5295 28.9393 42.3517 30.4375 42.1737 32.1363C41.945 34.32 42.288 36.159 43.3177 37.9598C46.7795 44.014 50.2467 50.0655 53.7135 56.117C54.47 57.4375 56.1485 57.8918 57.463 57.1318C58.7772 56.3718 59.2295 54.6853 58.473 53.365L55.5737 48.3043Z" fill="white"/>
<defs>
<linearGradient id="paint0_linear_48_239" x1="40" y1="5" x2="40" y2="75" gradientUnits="userSpaceOnUse">
<stop stop-color="#2AC9FA"/>
<stop offset="1" stop-color="#1F65EB"/>
</linearGradient>
</defs>
</svg>
