<svg width="80" height="80" viewBox="0 0 80 80" fill="none" xmlns="http://www.w3.org/2000/svg">
<g clip-path="url(#clip0_48_229)">
<path d="M59.7453 27.4412C50.4518 22.2432 35.5355 13.8965 12.3992 0.941946C10.8394 -0.0882124 9.04471 -0.223213 7.49408 0.301632L47.1895 39.997L59.7453 27.4412Z" fill="#32BBFF"/>
<path d="M7.4941 0.301514C7.20348 0.399951 6.92067 0.518702 6.6502 0.662139C4.93785 1.58839 3.67957 3.37074 3.67957 5.62496V74.3689C3.67957 76.6231 4.93769 78.4054 6.6502 79.3315C6.9202 79.4748 7.20285 79.594 7.49317 79.6931L47.1895 39.9969L7.4941 0.301514Z" fill="#32BBFF"/>
<path d="M47.1895 39.9971L7.49316 79.6932C9.04426 80.222 10.839 80.0973 12.3993 79.0522C34.8365 66.4881 49.5847 58.2402 58.9856 52.998C59.2473 52.851 59.5037 52.7073 59.7572 52.5649L47.1895 39.9971Z" fill="#32BBFF"/>
<path d="M3.67957 39.9971V74.369C3.67957 76.6232 4.93769 78.4056 6.6502 79.3317C6.9202 79.475 7.20285 79.5942 7.49317 79.6932L47.1895 39.9971H3.67957Z" fill="#2C9FD9"/>
<path d="M12.3992 0.941863C10.5469 -0.281265 8.36249 -0.246421 6.65015 0.662331L46.5869 40.5993L59.7451 27.4411C50.4518 22.2432 35.5355 13.8964 12.3992 0.941863Z" fill="#29CC5E"/>
<path d="M46.5873 39.3948L6.65015 79.3316C8.36265 80.2402 10.5469 80.2927 12.3992 79.052C34.8365 66.488 49.5846 58.2401 58.9856 52.9979C59.2473 52.8509 59.5037 52.7071 59.7571 52.5648L46.5873 39.3948Z" fill="#D93F21"/>
<path d="M76.3205 39.997C76.3205 38.0923 75.3594 36.1701 73.4545 35.1042C73.4545 35.1042 69.8922 33.1165 58.9729 27.009L45.9849 39.997L58.9856 52.9978C69.785 46.9342 73.4544 44.8897 73.4544 44.8897C75.3594 43.8239 76.3205 41.9017 76.3205 39.997Z" fill="#FFD500"/>
<path d="M73.4545 44.8899C75.3594 43.824 76.3205 41.9018 76.3205 39.9971H45.9849L58.9856 52.9979C69.7851 46.9344 73.4545 44.8899 73.4545 44.8899Z" fill="#FFAA00"/>
</g>
<defs>
<clipPath id="clip0_48_229">
<rect width="80" height="80" fill="white"/>
</clipPath>
</defs>
</svg>
