<svg width="80" height="80" viewBox="0 0 80 80" fill="none" xmlns="http://www.w3.org/2000/svg">
<path d="M10 36.6667H36.6667V10H10V36.6667ZM16.6667 16.6667H30V30H16.6667V16.6667ZM10 70H36.6667V43.3333H10V70ZM16.6667 50H30V63.3333H16.6667V50ZM43.3333 10V36.6667H70V10H43.3333ZM63.3333 30H50V16.6667H63.3333V30ZM43.3667 43.3333H50.0333V50H43.3667V43.3333ZM50.0333 50H56.7V56.6667H50.0333V50ZM43.3667 56.6667H50.0333V63.3333H43.3667V56.6667ZM56.7 56.6667H63.3667V63.3333H56.7V56.6667ZM63.3667 63.3333H70.0333V70H63.3667V63.3333ZM50.0333 63.3333H56.7V70H50.0333V63.3333ZM56.7 43.3333H63.3667V50H56.7V43.3333ZM63.3667 50H70.0333V56.6667H63.3667V50Z" fill="black"/>
</svg>
