<svg width="16" height="16" viewBox="0 0 16 16" fill="none" xmlns="http://www.w3.org/2000/svg">
<path d="M15.4286 7.99986C15.4286 9.97004 14.6459 11.8595 13.2528 13.2527C11.8597 14.6458 9.97016 15.4284 7.99998 15.4284C6.0298 15.4284 4.14032 14.6458 2.74719 13.2527C1.35406 11.8595 0.571411 9.97004 0.571411 7.99986M15.4286 7.99986C15.4286 6.02968 14.6459 4.1402 13.2528 2.74707C11.8597 1.35394 9.97016 0.571289 7.99998 0.571289C6.0298 0.571289 4.14032 1.35394 2.74719 2.74707C1.35406 4.1402 0.571411 6.02968 0.571411 7.99986M15.4286 7.99986H0.571411" stroke="black" stroke-linecap="round" stroke-linejoin="round"/>
<path d="M10.8571 7.99986C10.7168 10.7164 9.71617 13.318 7.99997 15.4284C6.28376 13.318 5.28316 10.7164 5.14282 7.99986C5.28316 5.2833 6.28376 2.68175 7.99997 0.571289C9.71617 2.68175 10.7168 5.2833 10.8571 7.99986Z" stroke="black" stroke-linecap="round" stroke-linejoin="round"/>
</svg>
